<?xml version="1.0" standalone="no"?>
<!DOCTYPE svg PUBLIC "-//W3C//DTD SVG 1.1//EN" "http://www.w3.org/Graphics/SVG/1.1/DTD/svg11.dtd" >
<!--
2013-9-30: Created.
-->
<svg>
<metadata>
Created by iconfont
</metadata>
<defs>

<font id="iconfont" horiz-adv-x="1024" >
  <font-face
    font-family="iconfont"
    font-weight="500"
    font-stretch="normal"
    units-per-em="1024"
    ascent="896"
    descent="-128"
  />
    <missing-glyph />
    
    <glyph glyph-name="x" unicode="x" horiz-adv-x="1001"
d="M281 543q-27 -1 -53 -1h-83q-18 0 -36.5 -6t-32.5 -18.5t-23 -32t-9 -45.5v-76h912v41q0 16 -0.5 30t-0.5 18q0 13 -5 29t-17 29.5t-31.5 22.5t-49.5 9h-133v-97h-438v97zM955 310v-52q0 -23 0.5 -52t0.5 -58t-10.5 -47.5t-26 -30t-33 -16t-31.5 -4.5q-14 -1 -29.5 -0.5
t-29.5 0.5h-32l-45 128h-439l-44 -128h-29h-34q-20 0 -45 1q-25 0 -41 9.5t-25.5 23t-13.5 29.5t-4 30v167h911zM163 247q-12 0 -21 -8.5t-9 -21.5t9 -21.5t21 -8.5q13 0 22 8.5t9 21.5t-9 21.5t-22 8.5zM316 123q-8 -26 -14 -48q-5 -19 -10.5 -37t-7.5 -25t-3 -15t1 -14.5
t9.5 -10.5t21.5 -4h37h67h81h80h64h36q23 0 34 12t2 38q-5 13 -9.5 30.5t-9.5 34.5q-5 19 -11 39h-368zM336 498v228q0 11 2.5 23t10 21.5t20.5 15.5t34 6h188q31 0 51.5 -14.5t20.5 -52.5v-227h-327z" />
    

    
    <glyph glyph-name="baoyou" unicode="&#58957;" d="M127.983616 296.750848l64.171008 0 0-509.44512-64.171008 0 0 509.44512ZM831.813632 296.750848l64.171008 0 0-509.44512-64.171008 0 0 509.44512ZM64.495616 491.311872l63.488 0 0-256-63.488 0 0 256ZM895.98464 491.311872l63.488 0 0-256-63.488 0 0 256ZM64.495616 491.993856l894.976 0 0-63.488-894.976 0 0 63.488ZM99.994624 300.164864l797.355008 0 0-64.852992-797.355008 0 0 64.852992ZM139.587584-147.840256l718.168064 0 0-64.854016-718.168064 0 0 64.854016ZM447.642624 453.765888l127.490048 0 0-632.148992-127.490048 0 0 632.148992ZM525.584384 491.263744C520.17664 768.494336 307.383296 884.6272 217.252864 763.896576 109.29152 619.281152 324.591616 487.214848 324.591616 487.214848s6.01088-13.835264 73.3696-24.108032C436.841472 457.176832 527.563776 389.805824 525.584384 491.263744zM434.500608 489.945856c-44.372992 0-111.464448 55.81312-111.464448 55.81312s-89.787392 91.716608-48.26624 156.908544c38.21568 60.003328 177.391616 5.020672 180.52608-155.65312C456.443904 488.213248 457.295872 489.945856 434.500608 489.945856zM621.109248 463.106816c67.35872 10.273792 73.3696 24.108032 73.3696 24.108032s223.225856 127.768576 104.906752 275.456C705.186816 880.253696 498.895872 768.494336 493.487104 491.263744 491.507712 389.805824 582.230016 457.176832 621.109248 463.106816zM563.774464 547.0144C566.909952 707.689216 708.478976 759.744256 744.301568 702.668544c40.749056-64.924672-48.26624-156.908544-48.26624-156.908544s-67.09248-55.81312-111.465472-55.81312C561.775616 489.945856 562.627584 488.213248 563.774464 547.0144z"  horiz-adv-x="1024" />

    
    <glyph glyph-name="yonghu" unicode="&#58898;" d="M919.802358-106.373311c0 3.595898-1.119497 6.873548-1.99647 10.226922-19.107173 145.496745-113.674992 267.242554-243.898893 323.202053 75.544557 51.642171 125.187187 138.535193 125.187187 237.019205 0 158.520363-128.464837 286.986223-287.044552 286.986223-158.521386 0-287.025109-128.46586-287.025109-286.986223 0-98.565876 49.643654-185.377034 125.267005-237.101069-128.104633-55.07741-221.474161-173.946704-242.578828-316.400137-2.396583-5.198395-3.91517-10.872628-3.91517-16.946974l0.400113-3.759627c0-22.62223 18.304901-40.927131 40.928155-40.927131 22.582321 0 40.929178 18.304901 40.929178 40.927131l-0.039909 0.481977 0.99977 0c19.426445 158.677952 152.045905 282.105053 314.76387 287.143812 3.437286-0.081864 6.794753-0.480954 10.271948-0.480954 3.476171 0 6.874571 0.399089 10.310833 0.480954 162.737408-5.039783 295.358915-128.46586 314.783313-287.143812l1.199315 0 0-0.481977c0-22.62223 18.307971-40.927131 40.929178-40.927131 22.623253 0 40.929178 18.304901 40.929178 40.927131L919.802358-106.373311zM512.010745 258.948025c-113.237017 0-205.047026 91.775216-205.047026 204.968232 0 113.27488 91.810009 205.04498 205.047026 205.04498 113.213481 0 204.984604-91.7701 204.984604-205.04498C716.995349 350.722218 625.223203 258.948025 512.010745 258.948025z"  horiz-adv-x="1024" />

    
    <glyph glyph-name="back" unicode="&#59031;" d="M363.840919 423.021263C336.938714 398.641139 337.301807 358.513862 364.730379 334.513862L673.951902 63.94503C682.818816 56.186481 696.296418 57.084988 704.05497 65.951902 711.813519 74.818816 710.915012 88.296418 702.048098 96.05497L392.826577 366.623802C384.59578 373.825747 384.502227 384.164713 392.492414 391.40582L702.325747 672.192277C711.056111 680.104171 711.719614 693.595384 703.807723 702.325748 695.895829 711.056111 682.404617 711.719614 673.674253 703.807722L363.840919 423.021263Z"  horiz-adv-x="1024" />

    
    <glyph glyph-name="more" unicode="&#59047;" d="M642.174253 391.40582C650.164439 384.164713 650.070886 373.825747 641.84009 366.623802L332.618569 96.05497C323.751654 88.296418 322.853148 74.818816 330.611697 65.951902 338.370249 57.084988 351.847851 56.186481 360.714765 63.94503L669.936288 334.513862C697.36486 358.513862 697.727953 398.641139 670.825747 423.021263L360.992414 703.807722C352.26205 711.719614 338.770837 711.056111 330.858944 702.325748 322.947053 693.595384 323.610556 680.104171 332.340919 672.192277L642.174253 391.40582Z"  horiz-adv-x="1024" />

    
    <glyph glyph-name="weiixn" unicode="&#58899;" d="M688.662959 467.089964c11.571132 0 23.018085-0.852313 34.369083-2.11667C692.151232 608.765772 538.430158 715.592717 362.955357 715.592717c-196.173016 0-356.864991-133.717127-356.864991-303.507962 0-98.010308 53.458628-178.494584 142.799054-240.916606l-35.689886-107.363169 124.753733 62.563134c44.641991-8.833571 80.456054-17.921143 125.002089-17.921143 11.198598 0 22.306884 0.553157 33.319215 1.416758-6.970901 23.870398-11.012331 48.852754-11.012331 74.783378C385.262241 340.563872 519.148702 467.089964 688.662959 467.089964zM496.779728 563.847203c26.867603 0 44.670213-17.678431 44.670213-44.534746 0-26.743425-17.796965-44.670213-44.670213-44.670213-26.74907 0-53.588451 17.926787-53.588451 44.670213C443.196922 546.168771 470.030659 563.847203 496.779728 563.847203zM247.023906 474.642244c-26.743425 0-53.740851 17.926787-53.740851 44.670213 0 26.856314 26.991781 44.534746 53.740851 44.534746 26.74907 0 44.551679-17.678431 44.551679-44.534746C291.569941 492.574676 273.772976 474.642244 247.023906 474.642244zM1014.370561 188.931247c0 142.680521-142.770832 258.984505-303.124139 258.984505-169.79648 0-303.524896-116.303985-303.524896-258.984505 0-142.917588 133.728416-258.961927 303.524896-258.961927 35.537485 0 71.385416 8.94646 107.075302 17.892921l97.88613-53.616673-26.839381 89.216248C961.002243 37.185732 1014.370561 108.44697 1014.370561 188.931247zM612.835357 233.590171c-17.768743 0-35.689886 17.678431-35.689886 35.706819 0 17.780032 17.921143 35.684241 35.689886 35.684241 26.997426 0 44.670213-17.90421 44.670213-35.684241C657.50557 251.268602 639.827139 233.590171 612.835357 233.590171zM809.132551 233.590171c-17.644565 0-35.447174 17.678431-35.447174 35.706819 0 17.780032 17.796965 35.684241 35.447174 35.684241 26.74907 0 44.670213-17.90421 44.670213-35.684241C853.802764 251.268602 835.875976 233.590171 809.132551 233.590171z"  horiz-adv-x="1024" />

    
    <glyph glyph-name="xl" unicode="&#58906;" d="M451.834 312.518c-91.418-4.222-165.299-53.317-165.299-114.536 0-61.155 73.881-107.105 165.299-102.824 91.446 4.165 165.48 61.564 165.48 122.709 0 61.094-74.032 98.875-165.48 94.651zM514.088 158.522c-27.992-36.225-83.374-53.912-137.155-24.702-25.591 13.922-24.656 41.26-24.656 41.26s-10.611 86.328 81.304 97.115c92.082 10.713 108.496-77.432 80.507-113.673zM408.861 204.471c-17.164-1.797-29.46-16.807-29.46-31.141 0-14.4 13.846-24.318 30.993-22.301 17.117 1.946 31.028 15.201 31.028 29.534 0 14.401-12.844 25.789-32.561 23.909zM452.434 216.337c-5.872-4.289-7.074-12.46-3.872-17.55 3.071-5.226 10.211-5.83 16.032-1.475 5.689 4.491 7.891 12.328 4.804 17.546-3.071 5.098-10.161 6.565-16.964 1.479zM511.999 697.322c-226.062 0-409.322-183.26-409.322-409.322 0-226.061 183.261-409.322 409.322-409.322 226.063 0 409.322 183.262 409.322 409.322 0 226.063-183.26 409.322-409.322 409.322zM699.019 177.286c-37.667-80.244-161.944-119.305-254.008-112.064-87.512 6.899-200.031 36.042-211.638 142.208 0 0-6.173 48.092 40.334 110.314 0 0 66.893 93.64 144.778 120.365 77.969 26.584 87.060-18.422 87.060-45.011-4.136-22.571-11.909-35.832 17.367-26.727 0 0 76.637 35.632 108.182 4.023 25.438-25.521 4.203-60.625 4.203-60.625s-10.558-11.716 11.143-15.94c21.786-4.357 90.264-36.168 52.581-116.543zM623.453 398.993c-8.34 0-15.017 6.763-15.017 15.068 0 8.436 6.676 15.203 15.017 15.203 0 0 93.95 17.42 82.722-83.79 0-0.602-0.064-1.070-0.199-1.604-1.051-7.168-7.357-12.662-14.764-12.662-8.375 0-15.163 6.699-15.161 15.068-0.001-0.001 14.894 67.65-52.598 52.717zM782.274 318.056h-0.133c-2.486-17.124-10.96-18.505-21.068-18.505-12.079 0-21.82 7.615-21.82 19.743 0 10.504 4.338 21.173 4.338 21.173 1.266 4.415 11.477 31.893-6.738 72.953-33.431 56.259-100.692 57.079-108.647 53.867-8.026-3.145-19.835-4.733-19.835-4.733-12.178 0-21.92 9.918-21.92 21.978 0 10.118 6.739 18.681 15.983 21.297 0 0 0.199 0.336 0.517 0.404 0.664 0.134 1.35 0.82 2.068 0.887 9.358 1.798 42.755 8.369 75.251 0.744 58.118-13.598 137.891-69.929 102.005-189.807z"  horiz-adv-x="1024" />

    
    <glyph glyph-name="zhifubao" unicode="&#58971;" d="M528.281825 185.116483c-0.394996-1.997494-3.984754-5.993504-5.591345-7.980765-8.791224-11.200086-21.570271-25.586748-32.365128-34.767851-2.38942-1.997494-4.389984-3.994987-7.194866-6.384407-1.987261-2.007727-4.389984-3.604084-6.77531-5.996574-46.352701-36.752042-101.081163-56.736189-162.214499-39.157835-6.79987 1.994424-13.990642 4.394077-19.586081 7.190773-17.165961 8.396227-31.959899 22.76754-37.548174 42.748616-4.397147 15.591093-2.001587 31.959899 3.991917 45.546336 17.98256 39.157835 61.929468 56.338123 106.672508 52.734038 32.763195-2.382257 59.529815-9.576099 87.494727-19.561521C468.759173 214.282756 514.308579 194.311913 528.281825 185.116483L528.281825 185.116483 528.281825 185.116483zM510.808872 686.060683c212.167191 0 384.17473-172.000376 384.17473-384.181893 0-63.175855-15.255449-122.793674-42.280966-175.367053l0 10.260691c-9.583263 2.797719-19.173688 6.80294-28.761044 9.988492-27.978215 8.791224-57.141418 19.586081-85.504396 29.16218-18.779715 6.404873-37.956474 12.793374-57.131185 19.184945-6.7968 2.797719-54.734602 17.98256-57.134255 19.583011 1.201361 2.385327 3.195785 5.584182 4.78805 7.980765 1.204431 2.797719 2.804882 5.595438 4.397147 7.998161 7.994068 14.780635 16.792455 34.750455 23.570835 49.939389 5.203512 11.17962 9.597589 23.570835 13.994736 35.155684 1.990331 6.39464 3.994987 11.990079 5.989411 18.374486 1.990331 5.197372 4.792143 13.589506 5.591345 18.782785l-130.648572 0.408299 0 47.13553 160.607908 0 0 21.172205-160.607908 0 0.405229 77.914534c-2.790556 0.402159-68.321038 0.796132-72.718185 0l-0.398066-77.914534L318.93282 421.638361l0-21.172205 160.610978 0-0.398066-47.543829L339.702865 352.922327l0-25.167193 260.095783 0c0.806365-5.595438-4.394077-25.977651-5.989411-31.970132-2.797719-10.379395-4.792143-15.579837-9.185196-24.769127-0.398066-1.596358-0.398066-1.994424-1.596358-3.195785-0.803295-5.595438-19.981077-33.559327-20.777209-35.550681-4.798283 0.398066-36.361139 9.185196-43.957141 11.17962-51.535747 13.177114-85.892229 20.37505-139.432633 24.37106-33.56342 0.800225-63.926962-2.797719-90.697675-15.981996-12.786211-6.387477-23.563672-13.579273-31.561833-21.576411-30.768771-30.765701-32.362059-83.09758-13.582343-121.058147 11.985986-23.162536 29.969569-40.74703 53.135174-52.740178 28.373211-14.371312 58.328453-16.770965 89.901543-15.178701 13.984503 0.398066 32.749892 3.999081 45.934169 7.202029 26.780947 6.381337 51.140751 17.972327 73.52455 32.749892 6.391571 3.999081 17.173125 12.000312 23.172769 16.785292l13.977339 11.990079c4.002151 3.192715 15.587 15.974833 19.981077 19.976984l24.363897 28.362978c2.402723-0.398066 28.771277-11.985986 33.165354-13.984503l132.646066-57.532321c19.166525-8.011464 38.931684-16.931624 57.986669-24.919553-70.405513-87.903026-178.62219-144.210449-299.997562-144.210449-212.174354 0-384.181893 172.007539-384.181893 384.17473C126.626979 514.060307 298.634518 686.060683 510.808872 686.060683L510.808872 686.060683 510.808872 686.060683z"  horiz-adv-x="1024" />

    
    <glyph glyph-name="icon15tianmianfeituihuanhuo" unicode="&#58897;" d="M510.012228-146.538079l-0.153496 0c-122.714879 0.794086-228.695632 44.898583-315.0023 131.281999-87.016843 87.097684-131.198088 193.313797-131.198088 315.871087 0 122.795721 44.181245 228.850152 131.35977 315.15682 86.144986 87.016843 192.202487 131.201158 314.994114 131.201158 122.561383 0 228.77238-44.185338 315.871087-131.281999 87.09666-86.225827 131.286092-192.279235 131.286092-315.074955 0-122.55729-44.189432-228.77238-131.286092-315.871087-87.097684-86.383416-193.309704-130.487913-315.709405-131.281999L510.012228-146.537056zM510.012228 694.539798c-109.86113 0-200.688765-37.839817-277.949406-115.813702-78.135568-77.341482-115.975385-168.32773-115.975385-278.111089 0-109.626793 37.839817-200.851471 115.894543-278.82638 77.18287-77.260641 168.169117-115.181299 278.030247-115.894543 109.707634 0.713244 200.851471 38.711673 278.907221 115.975385 77.896114 77.893045 115.813702 169.118745 115.813702 278.744515 0 109.783359-37.917588 200.769606-115.813702 277.9535C710.864722 656.623233 619.639021 694.539798 510.012228 694.539798zM416.293753 512.730009l-97.688903 0c-14.637372-1.666966-21.973454-9.046027-21.973454-22.131043 0-16.341177 7.335059-24.515347 21.973454-24.515347l58.621119 0 0-375.5984c0-16.341177 8.961092-24.514323 26.891464-24.514323 17.84953 0 27.64257 8.173147 29.268604 24.514323L433.386036 497.973934C433.385013 507.806883 427.675988 512.730009 416.293753 512.730009zM628.607276 358.047044c-22.77061-1.666966-42.318828-6.584975-58.542324-14.755052l17.054421 122.792651 126.996392 0c14.634302 0 22.76754 8.17417 24.393573 24.515347-1.626034 13.08604-9.759271 20.465101-24.393573 22.131043L560.264749 512.731032c-14.634302 0-21.174252-4.923126-19.549242-14.755052l-24.434505-154.682965c-3.252067-19.593244-4.878101-31.891338-4.878101-36.805254 0-11.426237 6.503111-17.135262 19.551288-17.135262 3.25616 0 8.925277 1.585101 17.095353 4.91801 21.137413 8.170077 40.653909 12.217253 58.620096 12.217253 48.823985-3.252067 74.844615-35.220153 78.095659-95.745644-4.841262-62.188364-33.358759-94.870718-85.434811-98.203626-27.682479 0-54.573943 9.836019-80.59355 29.510104-13.044084 11.419074-21.969361 17.132192-26.847461 17.132192-13.052271-1.586125-19.556405-8.966209-19.556405-22.054295 14.678304-45.848211 56.160067-69.564355 124.539434-71.15355 92.810802 1.589195 141.634788 53.149501 146.512888 154.605194C735.217363 304.024663 696.980503 349.875944 628.607276 358.047044z"  horiz-adv-x="1024" />

    
    <glyph glyph-name="qq" unicode="&#58903;" d="M623.647823-16.89951c-40.281425 0-77.615729 10.404977-101.604072 28.073382-7.888667-0.418532-14.849196-0.418532-22.642696 0.016373-23.989367-17.684778-61.322647-28.088732-101.620445-28.088732-75.968206 0-131.098827 33.82948-131.098827 80.447217 0 22.676465 13.389962 42.998303 37.380352 57.565067-0.361227 0.546446-0.720408 1.091868-1.081635 1.655709-14.049994-10.216689-29.667693-13.134135-43.967374-8.328689-42.790572 14.456247-45.125757 88.75851-25.604144 151.34494 10.44284 33.45495 29.730115 59.671031 45.815465 77.077469-0.170892 2.24411-0.249687 4.459568-0.249687 6.642281 0 18.140149 4.733814 35.779901 14.065344 52.514027 0 0.24764 0 0.5137 0 0.779759 0 120.696919 97.716532 218.909755 217.838354 218.909755 120.108518 0 217.826074-98.212836 217.826074-218.909755 0-0.078795 0-0.156566 0-0.233314 9.532097-16.890692 14.361079-34.703383 14.361079-53.060473 0-2.400676-0.094144-4.786003-0.282433-7.189749 15.884782-17.311271 34.952047-43.324738 45.316092-76.513628 19.536962-62.587454 17.201777-136.905066-25.620517-151.377686-14.31503-4.819772-29.823236-1.888-43.840484 8.251941-0.361227-0.562818-0.720408-1.108241-1.098008-1.669012 23.896246-14.567787 37.22481-34.841529 37.22481-57.45762C754.763023 16.929969 699.616028-16.89951 623.647823-16.89951zM527.20019 43.475556c3.842515 0 7.573489-1.372254 10.491958-3.88447 17.623379-15.142885 50.566676-24.547069 85.955674-24.547069 54.598502 0 99.002828 21.756513 99.002828 48.504714 0 14.193257-12.841469 27.652803-35.247782 36.947494-4.626367 1.917676-8.090259 5.879917-9.361205 10.69969-1.269923 4.835122-0.187265 9.965979 2.90005 13.896498 7.541767 9.544377 14.239306 19.791765 19.929912 30.426987 2.509147 4.695952 7.196912 7.845689 12.496615 8.392134 5.439896 0.591471 10.584056-1.557472 13.986549-5.628184 6.271844-7.440459 16.337083-16.45681 24.836665-13.601786 16.401552 5.550413 22.421662 56.598043 5.235235 111.638613-9.655917 30.957059-28.708855 54.787814-42.976814 69.309552-3.576455 3.64911-5.205559 8.749268-4.359284 13.771655 0.580215 3.524267 0.861624 6.828522 0.861624 10.104125 0 13.913894-4.075829 27.575032-12.136412 40.614-1.739621 2.806929-2.570545 6.096858-2.352581 9.404184 0.078795 1.091868 0.12689 2.168386 0.12689 3.275603 0 103.090936-83.306334 186.968276-185.712679 186.968276-102.404298 0-185.725982-83.877339-185.725982-186.968276 0-1.233084 0.062422-2.465145 0.156566-3.665483 0.218988-3.290953-0.580215-6.580882-2.303462-9.404184-7.904017-12.930497-11.918447-26.467815-11.918447-40.22412 0-3.134387 0.268106-6.361895 0.802272-9.731642 0.799202-5.004991-0.831948-10.073426-4.39203-13.676487-14.442944-14.630209-33.697473-38.617529-43.416835-69.777203-17.169031-55.05592-11.166317-106.0882 5.253654-111.623263 8.655124-2.994194 18.626219 6.207375 24.928762 13.709233 3.434216 4.069689 8.609075 6.191003 14.002922 5.630231 5.316076-0.546446 10.020214-3.711532 12.512988-8.40646 5.646604-10.589173 12.340049-20.852934 19.912515-30.475082 3.090385-3.930519 4.15667-9.076726 2.869351-13.897521-1.269923-4.835122-4.733814-8.779967-9.374508-10.698666-22.485107-9.279341-35.391045-22.77061-35.391045-37.009915 0-26.747177 44.406372-48.504714 98.987478-48.504714 35.404348 0 68.347644 9.404184 85.98842 24.563442 3.214205 2.775206 7.305383 4.228301 11.727089 3.838422 10.771321-0.827855 19.428491-0.843204 30.513968-0.01535C526.400988 43.460206 526.807241 43.475556 527.20019 43.475556z"  horiz-adv-x="1024" />

    
    <glyph glyph-name="neicunqia" unicode="&#58920;" d="M822.737672-62.712041 208.512453-62.712041c-106.851587 0-141.40966 40.460504-141.40966 149.249209L67.102792 690.283732c0 106.306164 30.454616 140.42831 141.40966 140.42831l474.628858 0c6.461155 0 12.70537-2.235924 17.709337-6.326079l246.870574-200.329585c6.461155-5.302773 12.800537-13.237489 12.800537-21.593807l0-515.927449C960.521758-14.591067 935.504992-62.712041 822.737672-62.712041zM208.512453 774.874315c-79.709413 0-85.571934-10.279111-85.571934-84.58956l0-603.747587c0-78.57866 9.242502-93.41046 85.571934-93.41046l614.225219 0c70.316485 0 81.944314 7.852852 81.944314 93.41046L904.681986 589.253734 673.162028 774.874315 208.512453 774.874315zM694.319907 481.720625 336.957847 481.720625c-34.081213 0-60.46 7.334036-60.46 60.5961L276.497846 788.833235c0 7.716752 6.244214 13.959943 13.959943 13.959943 7.716752 0 13.959943-6.243191 13.959943-13.959943l0-246.51651c0-25.710568-0.476861-32.677237 32.540114-32.677237l357.362061 0c23.721261 0 28.886911 0 28.886911 32.677237L723.206818 746.954429c0 7.716752 6.244214 13.959943 13.959943 13.959943s13.959943-6.244214 13.959943-13.959943l0-204.637704C751.126704 503.615285 743.560378 481.720625 694.319907 481.720625zM611.530342 593.398124c-15.418154 0-27.919886 12.500709-27.919886 27.919886l0 83.758636c0 15.418154 12.501732 27.918863 27.919886 27.918863s27.918863-12.500709 27.918863-27.918863l0-83.758636C639.449205 605.898833 626.948497 593.398124 611.530342 593.398124zM410.927535 286.285514 299.250036 286.285514c-7.715729 0-13.959943 6.244214-13.959943 13.960966 0 7.714705 6.244214 13.95892 13.959943 13.95892l111.677499 0c7.716752 0 13.959943-6.244214 13.959943-13.95892C424.887478 292.528706 418.643264 286.285514 410.927535 286.285514zM606.362646 286.285514 466.766284 286.285514c-7.715729 0-13.959943 6.244214-13.959943 13.960966 0 7.714705 6.244214 13.95892 13.959943 13.95892l139.596362 0c7.716752 0 13.960966-6.244214 13.960966-13.95892C620.322589 292.528706 614.079398 286.285514 606.362646 286.285514zM718.040145 286.285514l-55.838749 0c-7.715729 0-13.959943 6.244214-13.959943 13.960966 0 7.714705 6.244214 13.95892 13.959943 13.95892l55.838749 0c7.715729 0 13.959943-6.244214 13.959943-13.95892C732.000088 292.528706 725.756897 286.285514 718.040145 286.285514zM355.088786 216.486822l-55.838749 0c-7.715729 0-13.959943 6.244214-13.959943 13.960966s6.244214 13.960966 13.959943 13.960966l55.838749 0c7.716752 0 13.959943-6.244214 13.959943-13.960966S362.804515 216.486822 355.088786 216.486822zM522.605034 216.486822 410.927535 216.486822c-7.715729 0-13.959943 6.244214-13.959943 13.960966s6.244214 13.960966 13.959943 13.960966l111.677499 0c7.715729 0 13.959943-6.244214 13.959943-13.960966S530.320763 216.486822 522.605034 216.486822zM718.040145 216.486822 578.443783 216.486822c-7.715729 0-13.959943 6.244214-13.959943 13.960966s6.244214 13.960966 13.959943 13.960966l139.597385 0c7.715729 0 13.959943-6.244214 13.959943-13.960966S725.756897 216.486822 718.040145 216.486822zM438.847421 132.72307 299.250036 132.72307c-7.715729 0-13.959943 6.244214-13.959943 13.95892 0 7.716752 6.244214 13.960966 13.959943 13.960966l139.596362 0c7.715729 0 13.959943-6.244214 13.959943-13.960966C452.806341 138.967284 446.56315 132.72307 438.847421 132.72307zM536.564977 132.72307l-41.878806 0c-7.715729 0-13.959943 6.244214-13.959943 13.95892 0 7.716752 6.244214 13.960966 13.959943 13.960966l41.878806 0c7.715729 0 13.959943-6.244214 13.959943-13.960966C550.523897 138.967284 544.280706 132.72307 536.564977 132.72307z"  horiz-adv-x="1024" />

    
    <glyph glyph-name="top" unicode="&#58918;" d="M347.048732 896l30.167601 0c-1.294053-14.477213 0.727905-16.256536 7.521681-21.675381 77.724034-61.710133 134.096201-146.955849 161.271306-252.744649-121.317431 0.647026-245.222968-1.294053-364.922834 0.970539 26.042809 94.061449 72.628702 173.483927 137.654846 231.958929 7.926072 7.117289 26.285443 18.44025 28.307401 25.476661C348.423663 884.838796 345.835558 894.625069 347.048732 896L347.048732 896zM174.454466 593.272569l379.076534 0c8.734855-43.512519 17.065319-91.068952 15.12424-138.625385C566.714162 407.576021 557.494037 361.79891 548.84006 321.683279c-18.278493-84.841324-40.520022-165.719611-63.165943-242.392228L244.252429 79.291051c-25.719295 73.68012-46.424137 156.014217-65.107022 240.451149-17.631467 79.665113-30.24848 185.1304-5.66148 270.61875C173.403049 591.81676 173.403049 593.110813 174.454466 593.272569L174.454466 593.272569zM290.433931 478.263644c-16.660927-52.813522 19.976937-102.230156 73.518363-101.825764 21.998894 0.161757 45.291841 11.80823 57.504463 25.476661 44.806571 49.740147 6.793776 136.846063-65.107022 129.162625C320.278019 527.195008 298.845273 504.791723 290.433931 478.263644L290.433931 478.263644zM0 295.316958 0 324.514019C8.168707 403.693863 59.122028 445.265303 124.471685 464.109944c10.514177-120.266014 35.101177-226.378327 68.827423-323.432272-25.638417-36.071716-54.188453-73.922755-51.842982-134.824106C61.710133 69.666535 8.97749 160.57373 0 295.316958L0 295.316958zM604.484322 464.109944c47.556433-14.558092 83.628149-38.174552 104.656504-76.349104 22.160651-40.277387 21.513625-98.428876 11.32296-154.639286-9.058368-49.821025-27.013348-92.767396-49.982782-131.103704-22.888555-38.174552-50.306295-73.033094-83.951663-95.274623 1.698444 44.88745-14.558092 79.82687-34.858542 110.317984-5.418845 8.087829-16.418292 18.116736-16.98444 23.535582-0.808783 7.845194 8.815733 25.719295 12.2935 36.799621 26.851592 86.863281 47.556433 181.329121 56.614801 284.772451C603.190269 464.029066 604.160809 465.646631 604.484322 464.109944L604.484322 464.109944zM277.25077 50.093989l172.594266 0c-10.514177-20.947477-23.61646-39.22597-33.968881-60.335203-10.271543 6.712898-16.903562 17.065319-26.366322 24.506121-8.653977-27.741253-17.712345-55.23987-26.4472-82.981123-11.403839 26.93247-21.27099 55.401627-32.027802 82.981123-7.845194-13.506674-14.315457-28.388279-21.675381-42.461101C297.55122-3.123924 287.603191 23.646789 277.25077 50.093989L277.25077 50.093989zM277.25077 50.093989"  horiz-adv-x="1080" />

    
    <glyph glyph-name="didian" unicode="&#58975;" d="M530.342998 15.228954C525.804172 9.973472 519.08125 6.970339 511.982937 6.970339 504.884623 6.970339 498.195828 9.973472 493.622875 15.228954 480.450043 30.449377 170.615477 390.108645 170.615477 565.962541 170.615477 747.925082 323.741118 896 511.982937 896 700.224755 896 853.384523 747.925082 853.384523 565.962541 853.384523 390.108645 543.51583 30.449377 530.342998 15.228954ZM511.982937 849.690329C350.155036 849.690329 218.494968 722.43258 218.494968 565.962541 218.494968 429.627141 445.094981 147.162034 511.982937 66.725855 578.905019 147.162034 805.505032 429.627141 805.505032 565.962541 805.505032 722.43258 673.810838 849.690329 511.982937 849.690329ZM516.521762 454.812504C438.406185 454.812504 374.862627 516.274345 374.862627 591.762181 374.862627 667.250017 438.406185 728.711858 516.521762 728.711858 594.637339 728.711858 658.180897 667.250017 658.180897 591.762181 658.180897 516.274345 594.637339 454.812504 516.521762 454.812504ZM516.521762 682.402186C464.820103 682.402186 422.742118 641.757515 422.742118 591.762181 422.742118 541.766847 464.820103 501.122176 516.521762 501.122176 568.223422 501.122176 610.301406 541.766847 610.301406 591.762181 610.301406 641.757515 568.223422 682.402186 516.521762 682.402186ZM353.738319 123.06872C366.740519 125.525828 379.3332 117.369593 381.892688 104.811038 384.452176 92.286609 375.988802 80.103446 363.020729 77.612211 268.149037 59.525162 218.494968 27.173232 218.494968 4.547357 218.494968-30.602946 332.81877-81.690329 511.982937-81.690329 691.147104-81.690329 805.505032-30.602946 805.505032 4.547357 805.505032 26.831967 756.806505 58.876758 663.743518 77.066187 650.775445 79.625675 642.41445 91.842965 645.042192 104.367393 647.635806 116.891822 660.296741 125.048057 673.230687 122.454442 787.725122 100.067453 853.384523 57.10218 853.384523 4.547357 853.384523-82.475238 681.625808-128 511.982937-128 342.340065-128 170.615477-82.475238 170.615477 4.547357 170.615477 57.648204 237.366927 100.852363 353.738319 123.06872Z"  horiz-adv-x="1024" />

    
    <glyph glyph-name="weixin" unicode="&#59013;" d="M685.4 458.1c116.3 0 200.2-73.6 222.9-146.3 11.4-36.4 18.3-106-63.4-162.9l-2.5-1.7c-18.9-13-27.4-26.4-30-40.2l-2.3 1.2-15.3 8-16.7-4.4-20.5-5.4c-23.8-6.3-48.3-9.5-73-9.5-121.9 0-224.7 77.5-229.2 172.9-4.1 87.4 71.5 164.7 179.7 183.8C652 456.6 668.9 458.1 685.4 458.1M685.4 502.9c-18.8 0-38.2-1.6-58-5.1-131-23.1-221.9-119.4-216.7-230.1 5.7-123.9 132-215.6 273.9-215.6 27.8 0 56.2 3.5 84.5 11l20.3 5.3 42.8-22.3c22.4-11.8 41.3-20.6 43.7-20.6 0.1 0 0.2 0 0.3 0.1 0.5 1.3-4.1 17.3-10.2 35.6-13.7 41-14 38 4.4 50.8C1062.2 245.4 920.5 502.9 685.4 502.9L685.4 502.9zM300.4 607.4c28-18.4 29.7-58 2.7-75-43.7-27.7-94.7 21-65.4 62.5C250.7 613.5 281.7 619.6 300.4 607.4zM525.5 607.4c46.1-30.1 11.5-99.5-40.1-80.3-37.3 13.8-41.7 63.6-6.9 81.4C492.3 615.6 513.7 615.1 525.5 607.4zM622.2 378.4c11.5-7.4 17.6-26.1 12.6-39.6-10.4-29-55.2-31.1-67.3-3.2C553.8 367.7 591.7 397.5 622.2 378.4zM805.6 375.2c18.1-16.8 15.1-45.2-6-55.8-32.4-16-66.5 16-49.7 46.5C760.9 385.6 789.2 390.3 805.6 375.2zM711.7 520.4l-5.2 17.6c-35.7 120.8-171.6 204.5-318.2 204.5-21.5 0-43.2-1.8-64.9-5.5C59 691.1-29.2 401.8 181.2 269.3c11.5-7.2 11.5-6.4-5.8-56.4l-14.8-42.8 53.3 27.7 53.3 27.7 28.3-6.6c29.7-7.2 67.6-12.2 92.8-12.2l15.1 0-5.2 19.4c-2.4 8.6-4 17.1-5.2 25.6l-45.7 3.1c-14.1 1.9-28.8 4.6-41.5 7.7l-28.3 6.7-16.2 3.8-14.7-7.6-12.8-6.7c0.8 19.1-6.3 34.8-28.6 48.7C130.7 354 96.9 425.6 112.3 503.6 131.2 598.8 217 673 331 692.7c18.8 3.2 38 4.9 57.2 4.9 112.8 0 214.9-54.6 259.2-134.3l17.3-43.8C673.3 520.1 711.7 520.4 711.7 520.4z"  horiz-adv-x="1024" />

    
    <glyph glyph-name="guanbi" unicode="&#59220;" d="M674.221662 594.513528c-0.242524-0.242524-0.471744-0.494257-0.705058-0.741897l-0.103354 0.103354L512.87288 433.334615 352.333534 593.873961l-0.084934-0.084934c-13.5936 13.5936-35.633568 13.5936-49.227168 0-13.5936-13.5936-13.5936-35.633568 0-49.227168l-0.084934-0.084934 160.54037-160.54037L302.936497 223.398232l0.084934-0.084934c-13.5936-13.5936-13.5936-35.633568 0-49.227168 13.5936-13.5936 35.633568-13.5936 49.227168 0l0.084934-0.084934 160.54037 160.54037 160.54037-160.54037 0.130983 0.130983c13.669324-12.170181 34.626635-11.706623 47.734164 1.400906 13.107529 13.107529 13.571087 34.06484 1.400906 47.734164l0.130983 0.130983L562.268894 383.937578l160.54037 160.54037-0.103354 0.103354c0.24764 0.234337 0.499373 0.462534 0.741897 0.705058 13.5936 13.5936 13.5936 35.633568 0 49.227168C709.854207 608.107127 687.815261 608.107127 674.221662 594.513528z"  horiz-adv-x="1024" />

    
    <glyph glyph-name="sousuo" unicode="&#58931;" d="M467.968 149.50400000000002c-151.04 0-273.92 122.88-273.92 273.92 0 151.04 122.88 273.92 273.92 273.92s273.92-122.88 273.92-273.92C741.376 272.384 619.008 149.50400000000002 467.968 149.50400000000002M467.968 629.248c-113.664 0-206.336-92.672-206.336-206.336 0-113.664 92.672-206.336 206.336-206.336s206.336 92.672 206.336 206.336C674.304 537.088 581.632 629.248 467.968 629.248M787.456 61.952c-10.752 0-20.992 4.096-29.184 12.288l-142.848 142.848c-16.384 16.384-16.384 42.496 0 58.88 16.384 16.384 42.496 16.384 58.88 0l142.848-142.848c16.384-16.384 16.384-42.496 0-58.88C808.96 66.048 798.208 61.952 787.456 61.952"  horiz-adv-x="1024" />

    
    <glyph glyph-name="shangyiye-copy" unicode="&#58881;" d="M282.832 896c14.177 0 28.355-5.426 39.21-16.171l493.337-493.337-471.183-471.073c-21.599-21.599-56.71-21.599-78.309 0s-21.599 56.71 0 78.309l392.654 392.764-414.917 415.027c-21.599 21.599-21.599 56.71 0 78.309 10.855 10.744 25.032 16.171 39.21 16.171z"  horiz-adv-x="1024" />

    
    <glyph glyph-name="liwuhe01" unicode="&#59037;" d="M947.066817 458.382081l0 99.556437c-2.761903 72.826656-78.351486 76.512604-78.351486 76.512604l-38.720883-0.923022c0 0 58.997696 78.355579-11.980869 128.134309C677.897378 845.546911 511.971347 649.200034 511.971347 649.200034l-1.842974-663.71026 299.589262 0c82.041528 0.924045 82.960457 70.983681 82.960457 70.983681L892.678092 360.67373499999997c-0.918929 16.590863-5.528923 26.729781-5.528923 26.729781C950.757882 404.918425 947.066817 458.382081 947.066817 458.382081L947.066817 458.382081zM765.42485 730.780051c50.701752-17.052374 27.195386-52.540633 27.195386-52.540633s-1.38044-15.210423-32.262798-44.249807L568.619532 633.989611C568.619532 633.989611 671.862941 748.756471 765.42485 730.780051L765.42485 730.780051zM838.713017 350.53072399999996l0-294.980291c0 0-2.76702-23.043832-30.882358-22.12388l-269.63095 0L538.199709 383.71756700000003l277.002848 0C815.202557 383.71756700000003 840.554968 380.031619 838.713017 350.53072399999996L838.713017 350.53072399999996zM893.096624 454.697155c0 0-6.452969-23.043832-26.730805-21.200858L537.738198 433.496298l-0.462534 150.254096 331.395666 0c0 0 21.200858-2.305509 24.426319-24.886807L893.097648 454.697155 893.096624 454.697155zM893.096624 454.697155M136.849808 387.40761c0 0-4.609994-10.143011-5.528923-26.733874l0-304.199257c0 0 0.918929-70.059636 82.96148-70.979588l299.593356 0-1.841951 663.705144c0 0-165.931147 196.346877-306.046325 112.462375-70.980611-49.77873-11.981892-128.129192-11.981892-128.129192l-38.715767 0.918929c0 0-75.589582-3.685949-78.355579-76.507488l0-99.556437C76.933183 458.387197 73.247234 404.918425 136.849808 387.40761L136.849808 387.40761zM455.384561 633.989611L263.642562 633.989611c-30.878265 29.039383-32.263821 44.249807-32.263821 44.249807s-23.505343 35.488259 27.197432 52.540633C352.137059 748.756471 455.384561 633.989611 455.384561 633.989611L455.384561 633.989611zM208.797443 383.71756700000003l277.006941 0 0-350.291015L216.169341 33.42655300000001c-28.115338-0.919952-30.878265 22.12388-30.878265 22.12388L185.291077 350.534817C183.448102 380.031619 208.797443 383.71756700000003 208.797443 383.71756700000003L208.797443 383.71756700000003zM130.903376 558.8635859999999c3.223415 22.585391 24.429389 24.8909 24.429389 24.8909l331.391573 0-0.461511-150.258189-328.624553 0c-20.281929-1.842974-26.733874 21.200858-26.733874 21.200858L130.904399 558.8635859999999 130.903376 558.8635859999999zM130.903376 558.8635859999999"  horiz-adv-x="1024" />

    
    <glyph glyph-name="zixun" unicode="&#59033;" d="M971.17696 870.4 51.11424 870.4C22.88384 870.4 0 847.5136 0 819.28576L0 148.8256c0-28.2304 22.88384-51.11424 51.11424-51.11424l256.21248 0L230.016-100.7872l306.5152 198.49856 434.64576 0c28.2304 0 51.11424 22.88384 51.11424 51.11424L1022.2912 819.28576C1022.2912 847.5136 999.40736 870.4 971.17696 870.4zM511.14496 569.9072c35.28704 0 63.89376-28.82816 63.89376-64.38912s-28.60672-64.38912-63.89376-64.38912-63.89376 28.82816-63.89376 64.38912S475.8592 569.9072 511.14496 569.9072zM212.97664 505.51808c0 35.56096 28.60672 64.38912 63.89376 64.38912 35.28704 0 63.89376-28.82816 63.89376-64.38912s-28.60672-64.38912-63.89376-64.38912C241.58336 441.13024 212.97664 469.9584 212.97664 505.51808zM745.41952 441.13024c-35.28704 0-63.89376 28.82816-63.89376 64.38912s28.60672 64.38912 63.89376 64.38912c35.2896 0 63.89376-28.82816 63.89376-64.38912S780.70784 441.13024 745.41952 441.13024z"  horiz-adv-x="1024" />

    
    <glyph glyph-name="15tianmianfeihuanhuo24px" unicode="&#58885;" d="M631.466667 448c21.333333 0 38.4-4.266667 55.466667-8.533333 17.066667-8.533333 29.866667-17.066667 42.666667-29.866667 12.8-12.8 21.333333-25.6 29.866667-42.666667 8.533333-17.066667 8.533333-34.133333 8.533333-55.466667 0-21.333333-4.266667-38.4-12.8-55.466667-8.533333-17.066667-17.066667-29.866667-29.866667-42.666667-12.8-12.8-29.866667-21.333333-46.933333-29.866667S640 170.666667 622.933333 170.666667c-34.133333 0-59.733333 8.533333-76.8 21.333333s-34.133333 34.133333-46.933333 55.466667l51.2 17.066667c8.533333-17.066667 17.066667-29.866667 29.866667-38.4 12.8-8.533333 29.866667-12.8 46.933333-12.8 12.8 0 25.6 4.266667 34.133333 8.533333 12.8 4.266667 21.333333 12.8 29.866667 21.333333 8.533333 8.533333 12.8 17.066667 21.333333 29.866667 4.266667 12.8 8.533333 25.6 8.533333 38.4 0 17.066667-4.266667 29.866667-8.533333 42.666667-4.266667 12.8-12.8 21.333333-21.333333 29.866667-8.533333 8.533333-21.333333 12.8-34.133333 17.066667s-25.6 4.266667-42.666667 4.266667c-12.8 0-29.866667-4.266667-42.666667-8.533333-17.066667-4.266667-29.866667-12.8-42.666667-17.066667L529.066667 597.333333l226.133333 0 0-46.933333-174.933333 0 0-115.2c8.533333 4.266667 17.066667 8.533333 25.6 8.533333C614.4 448 622.933333 448 631.466667 448zM384 170.666667 341.333333 170.666667 341.333333 554.666667 298.666667 554.666667 256 597.333333l72.533333 0L384 597.333333 384 170.666667zM512-85.333333c-106.666667 0-200.533333 34.133333-281.6 93.866667 12.8 4.266667 25.6 12.8 38.4 25.6C337.066667-12.8 422.4-42.666667 512-42.666667c234.666667 0 426.666667 192 426.666667 426.666667S746.666667 810.666667 512 810.666667 85.333333 618.666667 85.333333 384c0-68.266667 17.066667-132.266667 46.933333-192-12.8-8.533333-21.333333-21.333333-29.866667-34.133333C64 226.133333 42.666667 302.933333 42.666667 384 42.666667 644.266667 251.733333 853.333333 512 853.333333s469.333333-209.066667 469.333333-469.333333S772.266667-85.333333 512-85.333333z"  horiz-adv-x="1024" />

    
    <glyph glyph-name="520jiashouhouwangdian24px" unicode="&#58886;" d="M512-42.666667c-4.266667 0-298.666667 277.333333-298.666667 512s132.266667 341.333333 298.666667 341.333333 298.666667-106.666667 298.666667-341.333333S516.266667-42.666667 512-42.666667zM512 768c-140.8 0-256-98.133333-256-320 0-200.533333 251.733333-426.666667 256-426.666667 4.266667 0 256 226.133333 256 426.666667C768 674.133333 652.8 768 512 768zM512 384c-72.533333 0-128 55.466667-128 128s55.466667 128 128 128 128-55.466667 128-128S584.533333 384 512 384zM512 597.333333c-46.933333 0-85.333333-38.4-85.333333-85.333333s38.4-85.333333 85.333333-85.333333 85.333333 38.4 85.333333 85.333333S558.933333 597.333333 512 597.333333z"  horiz-adv-x="1024" />

    
    <glyph glyph-name="shezhi" unicode="&#59157;" d="M466.496-126.624l-1.056 0.064c-25.184 2.080-47.456 22.368-51.744 47.232l-17.344 102.4c-0.672 4.064-6.624 11.040-10.56 12.416l-30.336 12.416c-5.44 2.496-15.424 0.8-17.472-0.64l-84.992-60.16c-19.584-14.016-51.456-12.736-70.080 3.168l-64.288 64c-17.952 20.48-19.488 50.592-4.736 71.296l60.416 84.672c2.176 3.072 2.784 11.52 1.024 15.040v0c0 0-1.664 3.104-7.264 16.608-6.176 14.848-6.816 17.44-6.816 17.44-0.992 3.040-7.456 8.672-11.36 9.376l-102.56 17.248c-25.152 4.288-45.44 26.624-47.168 52l-0.16 90.336c2.112 27.36 22.496 49.6 47.52 53.728l102.528 17.344c4.128 0.672 11.008 6.56 12.416 10.496l12.608 30.336c2.368 4.992 1.6 14.112-0.8 17.504l-60.288 84.544c-14.624 20.64-13.28 50.656 3.072 69.952l64.416 64.224c20.672 18.208 51.296 18.784 71.36 4.64l84.992-60.16c1.952-1.376 13.28-2.016 15.040-1.056 0.384 0.192 2.528 1.344 16.704 7.168 14.24 5.92 16.576 6.592 16.576 6.592 3.84 1.184 9.504 7.648 10.144 11.424l17.44 102.4c4.32 25.152 26.752 45.376 52.128 47.104l90.528 0.064c27.328-2.112 49.632-22.368 53.952-47.232l17.344-102.432c0.672-4.064 6.656-11.040 10.624-12.48l30.304-12.352c6.24-2.784 15.456-0.8 17.44 0.608l85.024 60.16c19.52 14.016 51.392 12.704 70.080-3.136l64.288-64.032c17.952-20.48 19.456-50.56 4.736-71.264l-60.416-84.672c-2.208-3.136-2.848-11.616-1.056-15.040 0.16-0.352 1.376-2.56 7.232-16.672 5.856-14.112 6.592-16.512 6.592-16.512 1.248-4.032 7.712-9.6 11.648-10.304l102.56-17.248c25.152-4.224 45.44-26.592 47.168-52l0.096-90.304c-2.112-27.392-22.528-49.6-47.552-53.728l-102.528-17.376c-4.128-0.672-10.944-6.496-12.32-10.432l-12.736-30.432c-2.336-4.928-1.568-14.112 0.832-17.472l60.288-84.512c14.624-20.736 13.216-50.816-3.232-70.048l-64.192-64.096c-11.328-9.92-24.64-14.72-38.784-14.72v0c-11.904 0-23.52 3.552-32.704 10.016l-84.992 60.16c-1.952 1.408-13.312 2.016-15.072 1.056-0.288-0.16-2.432-1.312-16.608-7.2-14.080-5.792-16.384-6.496-16.384-6.496-4.16-1.28-9.792-7.776-10.432-11.52l-17.408-102.4c-4.352-25.152-26.72-45.344-52.032-47.104h-91.648zM347.84 100.608c10.368 0 20.192-2.112 28.48-6.112l27.648-11.296c20.416-7.072 38.976-28.992 42.848-51.584l17.344-102.336c0.288-1.6 3.136-4.32 5.056-4.832l87.296 0.064c-0.032 0.064 3.040 2.944 3.328 4.672l17.408 102.368c3.872 22.656 23.328 44.832 45.28 51.584 0 0 0 0 0 0-0.096 0 2.976 1.152 12.448 5.056 9.472 3.936 12.384 5.248 13.12 5.568 18.208 9.6 49.44 8.032 67.776-4.96l84.928-60.16c0.192-0.128 1.312-0.64 3.104-0.64v0c2.048 0 3.52 0.672 3.872 0.96l61.536 61.408c-0.16 0 0.064 4.416-0.992 5.952l-60.224 84.448c-13.248 18.624-15.68 47.168-5.792 67.872l11.648 27.84c6.944 19.968 29.408 38.912 51.68 42.496l102.464 17.376c1.824 0.384 4.736 3.648 4.864 5.408l-0.16 86.528c-0.096 0-2.88 3.072-4.576 3.424l-102.72 17.28c-23.168 4.032-44.896 22.976-51.776 45.056v0c-0.032 0-1.216 3.040-5.12 12.512-3.968 9.568-5.28 12.512-5.632 13.248-10.24 19.36-8.288 48.736 4.96 67.456l60.512 84.736c0.96 1.408 0.736 5.6-0.384 6.912l-61.408 61.184c0.704-0.8-0.768-0.192-2.848-0.192-1.728 0-2.784-0.416-3.008-0.576l-85.024-60.16c-17.824-12.8-47.776-15.36-68-5.664l-27.712 11.296c-20.512 7.2-39.040 29.088-42.88 51.584l-17.344 102.336c-0.288 1.76-3.616 4.704-5.504 4.864l-86.72-0.064c0-0.064-3.104-2.944-3.392-4.672l-17.408-102.336c-3.84-22.624-23.264-44.8-45.216-51.584 0-0.032-3.008-1.184-12.416-5.088-9.568-3.936-12.512-5.248-13.248-5.568-17.984-9.568-49.344-8.032-67.744 4.992l-84.928 60.096c-0.416 0.32-6.176 0.288-6.848-0.224l-61.728-61.504c0 0 0 0 0 0 0.224 0 0.032-4.384 1.056-5.856l60.256-84.512c13.312-18.752 15.744-47.296 5.76-67.968l-11.52-27.648c-6.976-20.032-29.472-38.944-51.776-42.624l-102.496-17.344c-1.824-0.384-4.704-3.648-4.832-5.408l0.096-86.56c0.096 0 2.912-3.104 4.608-3.424l102.656-17.28c23.040-4 44.704-22.912 51.712-44.928 0.256-0.736 1.44-3.84 5.088-12.64 3.68-8.832 5.024-11.84 5.472-12.736 10.592-20.288 8.672-48.96-4.672-67.904l-60.512-84.768c-0.96-1.408-0.736-5.632 0.384-6.912l61.408-61.184c-0.736 0.8 0.736 0.224 2.816 0.192 1.728 0 2.784 0.416 3.008 0.576l84.992 60.16c10.432 7.456 24.896 11.744 39.648 11.744zM512.032 133.856c-138.336 0-250.848 112.224-250.848 250.176 0 137.92 112.544 250.144 250.848 250.144s250.848-112.224 250.848-250.144c-0-137.952-112.544-250.176-250.848-250.176zM512.032 583.136c-110.080 0-199.648-89.312-199.648-199.104s89.568-199.136 199.648-199.136 199.648 89.344 199.648 199.136-89.568 199.104-199.648 199.104z"  horiz-adv-x="1024" />

    
    <glyph glyph-name="bangzhu" unicode="&#59074;" d="M512 896c-282.624 0-512-229.376-512-512s229.376-512 512-512 512 229.376 512 512c0 282.624-229.376 512-512 512v0 0zM512 31.744c-36.864 0-65.536 24.576-65.536 65.536 0 36.864 24.576 65.536 65.536 65.536 36.864 0 65.536-24.576 65.536-65.536-0-40.96-28.672-65.536-65.536-65.536v0 0zM614.4 347.136c-45.056-24.576-65.536-53.248-57.344-90.112v-20.48h-90.112v24.576c0 57.344 24.576 110.592 81.92 151.552 57.344 36.864 81.92 77.824 77.824 122.88-12.288 45.056-36.864 73.728-94.208 77.824-69.632 0-114.688-32.768-126.976-110.592l-90.112 28.672c24.576 114.688 102.4 172.032 229.376 167.936 114.688-8.192 172.032-65.536 184.32-167.936 0-65.536-36.864-126.976-114.688-184.32v0 0z"  horiz-adv-x="1024" />

    
    <glyph glyph-name="zixun1" unicode="&#58996;" d="M781.471022 206.329895 379.211628 206.329895l-113.569858-113.396458L265.64177 206.329895l-57.359317 0c-31.652748 0-57.301517 25.605419-57.301517 57.200367L150.980936 635.683059c0 31.594948 25.648769 57.222042 57.301517 57.222042l573.18857 0c31.631073 0 57.287067-25.627094 57.287067-57.222042l0-372.145573C838.750864 231.942539 813.102096 206.329895 781.471022 206.329895L781.471022 206.329895 781.471022 206.329895zM810.118168 635.683059c0 15.779412-12.860509 28.596571-28.647146 28.596571L208.282453 664.27963c-15.801087 0-28.654371-12.824384-28.654371-28.596571l0-372.145573c0-15.750512 12.846059-28.596571 28.654371-28.596571l57.359317 0 28.647146 0 0-28.603796 0-44.325407 64.656572 64.548197 8.388231 8.388231 11.870684 0 402.259395 0c15.793862 0 28.654371 12.846059 28.654371 28.596571L810.118168 635.683059 810.118168 635.683059 810.118168 635.683059zM494.869512 420.898102c-15.815537 0-28.632696 12.824384-28.632696 28.596571 0 15.801087 12.817159 28.632696 28.632696 28.632696 15.822762 0 28.647146-12.824384 28.647146-28.632696C523.516658 433.722486 510.692274 420.898102 494.869512 420.898102L494.869512 420.898102 494.869512 420.898102zM380.252029 420.898102c-15.815537 0-28.647146 12.824384-28.647146 28.596571 0 15.801087 12.831609 28.632696 28.647146 28.632696s28.654371-12.824384 28.654371-28.632696C408.899174 433.722486 396.067565 420.898102 380.252029 420.898102L380.252029 420.898102 380.252029 420.898102zM606.799294 420.898102c-15.829987 0-28.654371 12.824384-28.654371 28.596571 0 15.801087 12.817159 28.632696 28.654371 28.632696 15.815537 0 28.632696-12.824384 28.632696-28.632696C635.43199 433.722486 622.614831 420.898102 606.799294 420.898102L606.799294 420.898102 606.799294 420.898102zM606.799294 420.898102"  horiz-adv-x="1024" />

    
    <glyph glyph-name="gouwuche" unicode="&#59101;" d="M1024.682667 54.954667c-24.348444 0-48.014222-9.671111-65.194667-26.737778-17.123556-17.009778-26.908444-40.675556-26.908444-64.739556 0-24.064 9.784889-47.672889 26.908444-64.739555a92.899556 92.899556 0 0 1 130.275556 0c17.123556 17.066667 27.079111 40.675556 27.079111 64.739555a91.989333 91.989333 0 0 1-92.16 91.477334m-508.643556 0c-24.234667 0-48.071111-9.671111-65.194667-26.737778-17.123556-17.009778-26.908444-40.675556-26.908444-64.739556 0-24.064 9.784889-47.672889 26.908444-64.739555a92.899556 92.899556 0 0 1 130.275556 0c17.123556 17.066667 27.022222 40.675556 27.022222 64.739555a91.989333 91.989333 0 0 1-92.103111 91.477334m785.294222 610.417777l-151.495111-478.72c-10.695111-33.564444-41.642667-55.978667-77.141333-55.978666H487.196444c-33.564444 0-66.332444 20.764444-78.051555 52.053333L186.083556 782.620444H56.718222A56.832 56.832 0 0 0 0 839.281778 56.888889 56.888889 0 0 0 56.718222 896h168.504889c23.552 0 44.828444-16.213333 53.191111-38.115556l231.367111-613.831111h539.022223l121.173333 382.634667H501.76a56.832 56.832 0 0 0-56.661333 56.718222 56.888889 56.888889 0 0 0 56.661333 56.718222h745.415111a57.856 57.856 0 0 0 54.044445-74.695111"  horiz-adv-x="1308" />

    
    <glyph glyph-name="chongzhi" unicode="&#58901;" d="M857.535354 791.272727 166.464646 791.272727C101.430303 791.272727 48.420202 748.606061 48.420202 685.640404l0-78.351515 927.159596 0 0 78.351515C975.579798 748.606061 922.569697 791.272727 857.535354 791.272727L857.535354 791.272727 857.535354 791.272727zM48.420202 172.088889c0-62.965657 52.751515-88.824242 117.785859-88.824242L857.793939 83.264646c65.034343 0 117.785859 25.858586 117.785859 88.824242L975.579798 521.69697 48.420202 521.69697 48.420202 172.088889 48.420202 172.088889 48.420202 172.088889zM638.383838 437.268687l118.044444 0 0-50.553535-118.044444 0L638.383838 437.268687 638.383838 437.268687 638.383838 437.268687zM166.464646 437.268687 520.339394 437.268687l0-50.553535L166.464646 386.715152l-0.258586 49.389899L166.464646 437.268687 166.464646 437.268687zM166.464646 319.353535l269.705051 0 0-50.553535L166.464646 268.8 166.464646 319.353535 166.464646 319.353535 166.464646 319.353535z"  horiz-adv-x="1024" />

    
    <glyph glyph-name="xuangoushouji" unicode="&#58882;" d="M367.0117131757038 202.7646423798518L278.98311111111104 202.7646423798518 278.98311111111104 694.6891851851851l321.0454909534815 0c0 0 0-10.356305768296297 0-10.356305768296297l25.890765027555556 0L625.9193683057778 767.1833279905186c0 15.53445925925926-5.178153490962963 25.890765027555556-20.712612750222217 25.890765027555556L273.8049576201481 793.0740942317036C258.27049836088895 793.0740942317036 253.09234608355558 782.7177872497778 253.09234608355558 767.1833279905186l0-652.4472888888889c0-15.53445925925926 5.178153490962963-25.890765027555556 20.712612750222217-25.890765027555556l93.20675555555555 0L367.0117131757038 202.7646423798518zM770.9076539164446 637.729501639111l-331.4017979354074 0c-15.53445925925926 0-20.712612750222217-15.53445925925926-20.712612750222217-25.890765027555556l0-652.4472888888889c0-15.53445925925926 5.178153490962963-25.890765027555556 20.712612750222217-25.890765027555556L770.9076539164446-66.49931851851852c15.53445925925926 0 20.712612750222217 15.53445925925926 20.712612750222217 25.890765027555556L791.6202666666667 611.838735397926C791.6202666666667 622.1950423798519 781.2639608983703 637.729501639111 770.9076539164446 637.729501639111zM641.453827565037-35.43040000000019L563.7815312687407-35.43040000000019c-15.53445925925926 0-25.890765027555556 10.356305768296297-25.890765027555556 25.890765027555556s10.356305768296297 25.890765027555556 25.890765027555556 25.890765027555556l77.6722962962963 0c15.53445925925926 0 25.890765027555556-10.356305768296297 25.890765027555556-25.890765027555556S656.9882868242964-35.43040000000019 641.453827565037-35.43040000000019zM765.7295016391112 42.24189629629632l-321.0454909534815 0L444.68400947200007 539.3445925925926l321.0454909534815 0L765.7295016391112 42.24189629629632z"  horiz-adv-x="1024" />

    
    <glyph glyph-name="weixiu" unicode="&#59076;" d="M856.0128 176.34304l-204.48256 207.01184a16.59904 16.59904 0 0 1-23.7312 0 17.05984 17.05984 0 0 1 0-24.0384l204.48256-207.01696c24.60672-24.96512 24.60672-65.56672 0-90.48064a62.6432 62.6432 0 0 0-89.344 0l-201.3696 203.90912c-0.0512 0.1024-0.07168 0.20992-0.12288 0.31744-4.33152 8.25344-14.54592 11.40224-22.69696 7.0144-90.56256-48.84992-200.12544-32.18432-272.71168 41.27232-61.31712 62.11584-82.76992 154.74688-56.8832 237.37856L311.0656 428.2368a49.98656 49.98656 0 0 1 35.59424-14.85824 49.96096 49.96096 0 0 1 35.61984 14.85824l78.8992 79.90272c9.46688 9.59488 14.70464 22.38976 14.70464 36.06016s-5.23264 26.46016-14.70464 36.05504L339.2512 703.6928c81.57696 26.24 173.12256 4.56704 234.49088-57.55904 54.77888-55.45472 78.40768-134.58944 63.39584-211.65568-1.80736-9.23648 4.07552-18.16064 13.2096-20.0192 1.08032-0.2048 2.21696-0.3072 3.2512-0.3072 7.83872 0 14.85312 5.62176 16.50688 13.6704 17.2288 88.26368-9.95328 178.84672-72.63232 242.35008-77.07136 77.99808-195.77344 100.33664-295.25504 55.66464-8.45824-3.81952-12.30336-13.8752-8.53504-22.44096 0.98816-2.26816 2.42688-4.18304 4.13696-5.73952L437.4528 556.22144c3.11808-3.2 4.87424-7.42912 4.87424-12.01664 0-4.59264-1.73056-8.82176-4.87424-12.02176L358.5536 452.2752a16.67072 16.67072 0 0 0-23.7568 0L194.9952 593.8176c-0.09728 0.10752-0.2048 0.20992-0.3072 0.31232l-0.1536 0.15872c-0.1024 0.10752-0.22528 0.17408-0.3328 0.27648a16.24064 16.24064 0 0 1-2.18624 1.81248c-0.24064 0.16384-0.49664 0.2816-0.7424 0.43008-0.5888 0.3584-1.152 0.74752-1.792 1.03936-0.128 0.05632-0.26112 0.0768-0.38912 0.128-0.26112 0.10752-0.5376 0.16896-0.80384 0.26624a17.408 17.408 0 0 1-2.38592 0.72192l-0.19456 0.02048a16.60928 16.60928 0 0 1-14.848-4.65408l-0.0512-0.04096c-0.08704-0.09216-0.14848-0.19968-0.2304-0.28672a16.98816 16.98816 0 0 1-1.78176-2.2016c-0.256-0.38912-0.44544-0.79872-0.67072-1.2032-0.26624-0.47104-0.57344-0.90624-0.7936-1.41312-44.12928-100.80256-22.02624-220.89216 54.9632-298.89024 51.328-51.94752 118.74816-79.0784 187.22816-79.0784 38.20032 0 76.71808 8.51968 112.94208 25.80992l196.75648-199.23968a95.8976 95.8976 0 0 1 68.4032-28.63104c24.76032 0 49.52064 9.54368 68.39808 28.63104 37.65248 38.22592 37.65248 100.33664-0.01024 138.55744z"  horiz-adv-x="1024" />

    
    <glyph glyph-name="xiangyoufanye" unicode="&#59051;" d="M70.41928533333333 378.63889900000004c0-254.320243 206.167546-460.487789 460.487789-460.487789s460.487789 206.167546 460.487789 460.487789-206.167546 460.487789-460.487789 460.487789-460.487789-206.167546-460.487789-460.487789zM182.00366333333335 231.28689899999995c-19.721157 46.625924-29.719882 96.202039-29.719882 147.352s9.999748 100.726076 29.719882 147.351999c19.066241 45.076638 46.37726 85.576027 81.17581 120.374578s75.29794 62.110593 120.374578 81.175811c46.625924 19.721157 96.202039 29.719882 147.352 29.719882s100.726076-9.999748 147.351999-29.719882c45.076638-19.066241 85.576027-46.37726 120.374578-81.175811s62.110593-75.29794 81.175811-120.374578c19.721157-46.625924 29.719882-96.202039 29.719882-147.351999s-9.999748-100.726076-29.719882-147.352c-19.066241-45.076638-46.37726-85.576027-81.175811-120.374578s-75.29794-62.110593-120.374578-81.17581c-46.625924-19.721157-96.202039-29.719882-147.351999-29.719882s-100.726076 9.999748-147.352 29.719882c-45.076638 19.066241-85.576027 46.37726-120.374578 81.17581s-62.10957 75.29794-81.17581 120.374578zM252.31912533333335 440.502875h300.056913V568.461175c0 22.512736 14.33652 29.367865 31.859615 15.232936l222.350111-179.3559c17.522072-14.134929 17.522072-37.263695 0-51.397601L584.2356533333334 173.58470999999997c-17.523095-14.133905-31.859615-7.2798-31.859615 15.232936V316.775946H252.31912533333335c-5.628184 0-10.233062 4.604878-10.233062 10.233062V430.269813c0 5.628184 4.604878 10.233062 10.233062 10.233062z"  horiz-adv-x="1024" />

    
    <glyph glyph-name="qitiantuihuan" unicode="&#58912;" d="M394.24 204.8h56.32l138.24 289.28v43.52h-204.8v-51.2h153.6v5.12zM890.88 366.080l-64 74.24c-7.68 7.68-20.48 10.24-30.72 2.56-84.48-69.12-84.48-61.44-84.48-74.24s10.24-10.24 20.48-10.24c7.68 0 12.8-5.12 17.92 0 5.12 5.12 17.92 10.24 33.28 25.6-5.12-166.4-143.36-304.64-312.32-304.64-171.52 0-312.32 138.24-312.32 312.32 0 171.52 140.8 312.32 312.32 312.32 110.080 0 207.36-56.32 266.24-148.48 5.12-7.68 10.24-10.24 17.92-10.24 2.56 0 7.68 0 10.24 2.56 10.24 5.12 12.8 20.48 7.68 28.16-66.56 104.96-179.2 168.96-302.080 168.96-189.44 0-350.72-158.72-350.72-355.84s161.28-353.28 355.84-353.28c189.44 0 345.6 151.040 353.28 337.92l28.16-33.28c5.12-5.12 10.24-7.68 15.36-7.68s10.24 2.56 12.8 5.12c12.8 5.12 12.8 20.48 5.12 28.16z"  horiz-adv-x="1024" />

    
    <glyph glyph-name="yiyuan" unicode="&#58896;" d="M522.51648 858.44992c-232.34048 0-421.38112-189.03552-421.38112-421.38112s189.04064-421.376 421.38112-421.376c232.3456 0 421.38112 189.03552 421.38112 421.376S754.86208 858.44992 522.51648 858.44992z m0-796.8512a19.75296 19.75296 0 0 0-19.2768 15.5136 356.74624 356.74624 0 0 0-102.93248 20.81792 19.77856 19.77856 0 0 0-16.11776-8.42752c-2.56 0-5.1712 0.50688-7.69536 1.57184a374.88128 374.88128 0 0 0-229.46304 346.0096c0 146.27328 85.90336 280.27904 218.86976 341.36064a19.74272 19.74272 0 0 0 26.1376-9.61024 356.51584 356.51584 0 0 0 110.73024 23.97696 19.7632 19.7632 0 0 0 19.74784 19.72224c98.4576 0 191.51872-37.84192 262.05184-106.53696a19.7376 19.7376 0 0 0 0.6656-27.58656 358.87616 358.87616 0 0 0 49.22368-67.43552 19.71712 19.71712 0 0 0 25.69216-9.38496c25.1136-51.4816 37.8624-106.82368 37.8624-164.50048-0.00512-207.03744-168.45824-375.49056-375.49568-375.49056zM522.51648 773.02272c88.09472 0 171.3664-33.85344 234.47552-95.3088a19.75296 19.75296 0 0 1 27.95008 0.3328c0.10752 0.11264 0.18432 0.25088 0.29184 0.37376a19.7376 19.7376 0 0 1-0.6656 27.58656C714.04032 774.69696 620.9792 812.544 522.51648 812.544a19.74784 19.74784 0 0 1-19.74784-19.72224v-0.03072a19.74784 19.74784 0 0 1 19.74784-19.76832zM376.48896 91.07968000000005a19.74784 19.74784 0 0 1 7.69536-1.57184 19.7632 19.7632 0 0 1 16.11776 8.42752c0.80384 1.13664 1.53088 2.32448 2.09408 3.65568a19.72224 19.72224 0 0 1-10.53184 25.84576 335.50848 335.50848 0 0 0-205.32736 309.632c0 130.88256 76.89216 250.78272 195.86048 305.43872a19.77344 19.77344 0 0 1 9.7024 26.21952c-0.01536 0.04096-0.04608 0.06656-0.06656 0.10752a19.7376 19.7376 0 0 1-26.1376 9.61024c-132.9664-61.07648-218.86976-195.07712-218.86976-341.35552a374.8864 374.8864 0 0 1 229.46304-346.0096z m113.792 130.12992h56.03328a16.15872 16.15872 0 0 1 16.16384 16.16384V631.18336a16.1536 16.1536 0 0 1-16.16384 16.15872H490.28096a16.16384 16.16384 0 0 1-16.16384-16.15872v-393.80992a16.15872 16.15872 0 0 1 16.16384-16.16384z m32.23552-120.09984a19.75808 19.75808 0 0 1-19.75296-19.75296c0-1.4592 0.18432-2.87744 0.48128-4.2496a19.74272 19.74272 0 0 1 19.2768-15.50848c207.04256 0 375.49056 168.44288 375.49056 375.48544 0 57.68192-12.74368 113.024-37.8624 164.50048a19.712 19.712 0 0 1-25.69216 9.38496c-0.25088-0.10752-0.50688-0.1536-0.74752-0.27136a19.7632 19.7632 0 0 1-9.10848-26.43456c22.48704-46.05952 33.8688-95.58016 33.8688-147.21024 0-185.24672-150.71744-335.94368-335.95392-335.94368z m0-122.97216c253.45536 0 458.9312 205.47072 458.9312 458.92608C981.44256 690.5241599999999 775.97184 896 522.51648 896S63.58016 690.5241599999999 63.58016 437.0688c0-253.46048 205.48096-458.9312 458.93632-458.9312z m0 880.31232c232.3456 0 421.38112-189.03552 421.38112-421.38112s-189.03552-421.376-421.38112-421.376c-232.34048 0-421.38112 189.03552-421.38112 421.376S290.17088 858.44992 522.51648 858.44992zM350.62784-78.60735999999997V-128h635.8272v49.39264H350.62784zM49.39776-128h276.19328v49.39264H49.39776V-128z"  horiz-adv-x="1024" />

    
    <glyph glyph-name="xiayiye" unicode="&#58943;" d="M317.554 753.209c-5.377-5.348-8.704-12.753-8.704-20.935s3.327-15.586 8.703-20.934l327.795-327.795-327.794-327.794c-5.377-5.348-8.704-12.753-8.704-20.935s3.327-15.586 8.703-20.934a29.53 29.53 0 0 1 41.871-0.001L708.153 362.61a29.53 29.53 0 0 1 0 41.87L359.31 753.209c-11.491 11.605-30.265 11.605-41.757 0z"  horiz-adv-x="1024" />

    
    <glyph glyph-name="yijiuhuanxin2" unicode="&#58880;" d="M440.891 483.564h170.662v-220.439h-170.662v220.439zM440.891 508.452v-3.555h170.662v3.555c0 9.799-7.971 17.777-17.777 17.777h-135.108c-9.806 0-17.777-7.978-17.777-17.777zM440.891 241.792v-3.555c0-9.799 7.971-17.777 17.777-17.777h135.108c9.806 0 17.777 7.978 17.777 17.777v3.555h-170.662zM1007.533 613.609c-21.944 126.276-142.837 246.415-268.651 266.973-125.814 20.558-331.697 20.558-457.51 0-125.821-20.558-245.512-140.697-265.999-266.973-20.479-126.276-20.479-332.913 0-459.196 20.479-126.276 140.178-246.415 265.992-266.973 125.814-20.558 331.697-20.558 457.51 0 125.814 20.558 246.707 140.697 268.651 266.973 21.944 126.276 21.944 332.92 0.007 459.196zM222.727 291.789c-7.203 26.204-11.129 53.752-11.129 82.217 0 143.129 97.349 263.851 229.292 299.697v34.026l95.265-41.393-95.265-41.4v26.63c-120.033-35.228-207.959-146.286-207.959-277.561 0-24.561 3.1-48.404 8.889-71.195l-19.093-11.022zM593.776 547.562c21.567 0 39.11-17.543 39.11-39.11v-270.216c0-21.567-17.543-39.11-39.11-39.11h-135.108c-21.567 0-39.11 17.543-39.11 39.11v270.216c0 21.567 17.543 39.11 39.11 39.11l135.108 0zM522.226 63.379c-88.026 0-167.562 36.856-224.13 95.898l-27.363-15.793-11.783 103.201 83.482-61.808-25.272-14.592c52.429-52.784 124.968-85.573 205.065-85.573 80.674 0 153.703 33.229 206.224 86.668l18.993-10.965c-56.639-59.689-136.63-97.036-225.218-97.036zM767.339 208.371l11.783 103.201 22.257-12.849c6.499 24.035 10.133 49.229 10.133 75.283 0 133.536-90.977 246.181-214.188 279.346v22.044c135.108-33.677 235.521-156.007 235.521-301.39 0-29.965-4.345-58.914-12.302-86.341l30.278-17.479-83.482-61.815z"  horiz-adv-x="1024" />

    
    <glyph glyph-name="weixin-" unicode="&#58893;" d="M512 831.5C264.8 831.5 64.5 631.1 64.5 384S264.8-63.5 512-63.5c247.1 0 447.5 200.4 447.5 447.5S759.1 831.5 512 831.5zM495.2 301.5C414 196.7 314.4 228.1 298.7 236c-39.3 10.5-52.4 81.2-2.6 104.8 81.2 26.2 154.6-2.6 207-28.8-5.3-7.9-7.9-10.5-7.9-10.5z m86.5 28.8c36.7 65.5 49.8 128.4 49.8 128.4H508.3v47.2h144.1v18.3H508.3v70.7h-65.5v-70.7h-131v-21h131V456h-110v-21h225.3c0-2.6 0-2.6-2.6-7.9 0-23.6-15.7-55-28.8-81.2-167.7 65.5-214.8 26.2-227.9 21-110-78.6-7.9-178.2 10.5-175.5 117.9-26.2 193.9 23.6 246.3 86.5 2.6-2.6 7.9-2.6 10.5-2.6 36.7-21 209.6-102.2 209.6-102.2v99.6c-31.6 2.6-125.9 34-194 57.6z"  horiz-adv-x="1024" />

    
    <glyph glyph-name="bangzhu1" unicode="&#58922;" d="M512-128C229.205-128 0 101.205 0 384S229.205 896 512 896s512-229.205 512-512-229.205-512-512-512z m-56.889 170.667H568.89V156.444H455.11v-113.777z m83.456 682.268c-128.569 0-253.667-63.659-253.667-227.157l113.322-0.398c0 55.864 36.01 114.972 112.925 114.972 45.909 0 112.526-18.603 112.526-86.699 0-62.691-20.366-75.434-81.806-120.32-59.279-40.334-89.6-93.07-87.439-158.094v-33.621h115.599c0 102.969 72.76 115.37 128.398 200.249 30.037 43.861 41.13 82.261 41.13 136.192-0.056 84.878-80.27 174.876-200.988 174.876z"  horiz-adv-x="1024" />

    
    <glyph glyph-name="user" unicode="&#58883;" d="M947.924-67.761c0-21.751-17.62-39.371-39.353-39.371-21.751 0-39.371 17.62-39.371 39.371l-0.353 3.655c0 1.554 0.282 3.054 0.441 4.59-24.576 172.791-172.721 299.767-353.103 301.762-1.448-0.035-2.825-0.23-4.29-0.23-1.43 0-2.807 0.194-4.237 0.23-178.317-1.977-325.049-126.146-352.097-295.936 0.9-3.337 1.536-6.78 1.536-10.399l0.371-3.708c0-22.087-17.902-39.989-39.971-39.989s-39.989 17.902-39.989 39.989l-0.035 0.353-0.759-0c0.106 1.165 0.335 2.278 0.459 3.425 0 3.302 0.53 6.426 1.271 9.498 20.498 159.303 127.241 288.097 272.525 343.57-84.586 54.201-139.741 149.963-139.741 259.372 0 169.225 131.478 306.406 300.703 306.406 169.207 0 300.703-137.181 300.703-306.406 0-109.374-55.102-205.118-139.652-259.319 144.278-55.031 250.545-182.325 272.19-340.039 1.465-4.131 2.436-8.527 2.436-13.171l0.318-3.655zM743.495 548.334c0 127.947-103.706 231.654-231.654 231.654s-231.654-103.724-231.654-231.654c0-127.929 103.724-231.636 231.654-231.636s231.654 103.706 231.654 231.636z"  horiz-adv-x="1024" />

    
    <glyph glyph-name="shangyiye" unicode="&#58884;" d="M639.488-30.976c-8.193 0-16.384 3.136-22.656 9.344l-383.488 383.488c-12.48 12.48-12.48 32.768 0 45.248s32.768 12.48 45.248 0l383.552-383.488c12.48-12.48 12.48-32.768 0-45.248-6.272-6.272-14.464-9.344-22.656-9.344zM256 352.512c-8.193 0-16.384 3.136-22.656 9.344-12.48 12.48-12.48 32.768 0 45.248l383.488 383.488c12.48 12.48 32.768 12.48 45.248 0s12.48-32.768 0-45.248l-383.488-383.488c-6.208-6.208-14.4-9.344-22.592-9.344z"  horiz-adv-x="1024" />

    
    <glyph glyph-name="fanye2" unicode="&#59077;" d="M16 896z m16 0z m16 0z m16 0z m16 0z m16 0z m16 0z m16 0z m16 0z m16 0z m16 0z m16 0z m16 0z m16 0z m16 0z m16 0z m16 0z m16 0z m16 0z m16 0z m16 0z m16 0z m16 0z m16 0z m16 0z m16 0z m16 0z m16 0z m16 0z m16 0z m16 0z m16 0z m16 0z m16 0z m16 0z m16 0z m16 0z m16 0z m16 0z m16 0z m16 0z m16 0z m16 0z m16 0z m16 0z m16 0z m16 0z m16 0z m16 0z m16 0z m16 0z m16 0z m16 0z m16 0z m16 0z m16 0z m16 0z m16 0z m16 0z m16 0z m16 0z m16 0z m16 0z m16 0z m16 0z m16 0z m16 0z m16 0z m16 0z m16 0z m16 0z m16 0z m16 0z m16 0z m16 0z m16 0z m16 0z m16 0z m16 0z m16 0z m16 0z m16 0z m16 0z m16 0z m16 0zM0 880z m0-16z m0-16z m0-16z m0-16z m0-16z m0-16z m0-16z m0-16z m0-16z m0-16z m0-16z m0-16z m0-16z m0-16z m0-16z m0-16z m0-16z m0-16z m0-16z m0-16z m0-16z m0-16z m0-16z m0-16z m0-16z m0-16z m0-16z m0-16z m0-16z m0-16z m0-16z m0-16z m0-16z m0-16z m0-16z m0-16z m0-16z m0-16z m0-16z m0-16z m0-16z m0-16z m0-16z m0-16z m0-16z m0-16z m0-16z m0-16z m0-16z m0-16z m0-16z m0-16z m0-16z m0-16z m0-16z m0-16z m0-16z m0-16z m0-16z m0-16z m0-16z m0-16z m771 532l35-36-212-212-36 35z m35-36l-35-35-213 213 36 35z m52 417q81-35 144-97t97-143q35-84 35-176.5T1099 208q-34-81-97-143.5T858-32q-84-36-175.5-36T507-32q-81 35-144 97t-98 143q-35 84-35 176.5T265 561q35 81 97.5 143T507 801q84 35 175.5 35T858 801zM682.5-31q113.5 0 209 55.5t151 151T1098 384t-55.5 208.5T891 744 682.5 800 474 744 322.5 592.5 267 384t55.5-208.5 151-151 209-55.5z"  horiz-adv-x="1365" />

    
    <glyph glyph-name="top1" unicode="&#58887;" d="M347.049 896h30.168c-1.294-14.477 0.728-16.257 7.522-21.675 77.724-61.71 134.096-146.956 161.271-252.745-121.317 0.647-245.223-1.294-364.923 0.971 26.043 94.061 72.629 173.484 137.655 231.959 7.926 7.117 26.285 18.44 28.307 25.477 1.375 4.853-1.213 14.639-0 16.014v0zM174.454 593.273h379.077c8.735-43.513 17.065-91.069 15.124-138.625-1.941-47.071-11.161-92.848-19.815-132.964-18.278-84.841-40.52-165.72-63.166-242.392l-241.422 0c-25.719 73.68-46.424 156.014-65.107 240.451-17.631 79.665-30.248 185.13-5.661 270.619-0.081 1.456-0.081 2.75 0.971 2.912v0zM290.434 478.264c-16.661-52.814 19.977-102.23 73.518-101.826 21.999 0.162 45.292 11.808 57.504 25.477 44.807 49.74 6.794 136.846-65.107 129.163-36.072-3.882-57.504-26.285-65.916-52.814v0zM0 295.317v29.197c8.169 79.18 59.122 120.751 124.472 139.596 10.514-120.266 35.101-226.378 68.827-323.432-25.638-36.072-54.188-73.923-51.843-134.824-79.746 63.813-132.479 154.72-141.456 289.463v0zM604.484 464.11c47.556-14.558 83.628-38.175 104.657-76.349 22.161-40.277 21.514-98.429 11.323-154.639-9.058-49.821-27.013-92.767-49.983-131.104-22.889-38.175-50.306-73.033-83.952-95.275 1.698 44.887-14.558 79.827-34.859 110.318-5.419 8.088-16.418 18.117-16.984 23.536-0.809 7.845 8.816 25.719 12.293 36.8 26.852 86.863 47.556 181.329 56.615 284.772-0.404 1.86 0.566 3.478 0.89 1.941v0zM277.251 50.094h172.594c-10.514-20.947-23.616-39.226-33.969-60.335-10.272 6.713-16.904 17.065-26.366 24.506-8.654-27.741-17.712-55.24-26.447-82.981-11.404 26.932-21.271 55.402-32.028 82.981-7.845-13.507-14.315-28.388-21.675-42.461-11.808 25.072-21.756 51.843-32.109 78.29v0zM277.251 50.094z"  horiz-adv-x="1080" />

    
    <glyph glyph-name="fanye" unicode="&#58902;" d="M625.1 225.5L466.7 383.9l158.5 158.5c12.4 12.4 12.4 32.8 0 45.3-12.4 12.4-32.8 12.4-45.3 0L398.8 406.6c-12.4-12.4-12.4-32.8 0-45.2l181.1-181.1c12.4-12.4 32.8-12.4 45.2 0 12.5 12.4 12.5 32.7 0 45.2z"  horiz-adv-x="1024" />

    
    <glyph glyph-name="pre" unicode="&#58926;" d="M741.168-128c-14.177 0-28.355 5.426-39.21 16.171l-493.337 493.337 471.183 471.073c21.599 21.599 56.71 21.599 78.309 0s21.599-56.71 0-78.309l-392.654-392.764 414.917-415.027c21.599-21.599 21.599-56.71 0-78.309-10.855-10.744-25.032-16.171-39.21-16.171z"  horiz-adv-x="1024" />

    
    <glyph glyph-name="next" unicode="&#58948;" d="M512 891.904c-279.347 0-507.904-228.557-507.904-507.904 0-279.345 228.557-507.904 507.904-507.904 279.349 0 507.904 228.559 507.904 507.904 0 279.347-228.557 507.904-507.904 507.904zM632.627 358.605l-190.464-190.464c-6.349-6.349-19.046-12.696-25.395-12.696s-19.046 6.349-25.395 12.696c-12.698 12.698-12.698 38.095 0 50.792l165.069 165.067-165.069 165.069c-12.698 12.698-12.698 38.093 0 50.79 12.698 12.698 38.095 12.698 50.79 0l190.464-190.464c19.046-12.698 19.046-38.093 0-50.79z"  horiz-adv-x="1024" />

    
    <glyph glyph-name="fanye1" unicode="&#58909;" d="M398.9 542.5l158.4-158.4-158.5-158.5c-12.4-12.4-12.4-32.8 0-45.3 12.4-12.4 32.8-12.4 45.3 0l181.1 181.1c12.4 12.4 12.4 32.8 0 45.2l-181.1 181.1c-12.4 12.4-32.8 12.4-45.2 0-12.5-12.4-12.5-32.7 0-45.2z"  horiz-adv-x="1024" />

    
    <glyph glyph-name="top2" unicode="&#58888;" d="M512.007474 896a511.992548 511.992548 0 1 1 511.992548-511.858272A512.52965 512.52965 0 0 1 512.007474 896z m0-982.896787A471.038515 471.038515 0 1 0 983.045989 384.141728 471.441341 471.441341 0 0 0 512.007474-86.896787zM535.102863 652.692763s0 0.805653-0.671378 1.208479a30.480542 30.480542 0 0 1-6.5795 4.699643 31.689022 31.689022 0 0 1-3.222612 2.148409h-1.745582a29.272063 29.272063 0 0 1-3.356888 0.671377 30.480542 30.480542 0 0 1-6.713776 1.342755h-1.074204a30.480542 30.480542 0 0 1-7.519429-1.342755 29.003512 29.003512 0 0 1-2.954061 0 30.211991 30.211991 0 0 1-11.950521-7.519429s0-0.805653-0.805654-1.208479l-214.840827-202.21893a30.749093 30.749093 0 1 1 42.162512-44.713747l165.427438 155.625325v-376.911378a30.749093 30.749093 0 1 1 61.498187 0v375.971449l165.158886-155.491049a30.749093 30.749093 0 1 1 42.028237 44.713747z"  horiz-adv-x="1024" />

    
    <glyph glyph-name="guanbi1" unicode="&#58889;" d="M781.8 654.1c-149.4 149.4-391.5 149.4-540.9 0-149.4-149.4-149.4-391.5 0-540.9 149.4-149.4 391.5-149.4 540.9 0s149.3 391.6 0 540.9zM748 147c-130.7-130.7-342.6-130.7-473.3 0s-130.7 342.6 0 473.3 342.6 130.7 473.3 0 130.7-342.6 0-473.3zM511.8 417.8l101.3 101.3c9.3 9.3 24.5 9.3 33.8 0 9.3-9.3 9.3-24.5 0-33.8L545.6 384l102-102c9.4-9.4 9.4-24.7 0-34.1-9.4-9.4-24.7-9.4-34.1 0l-102 102-101.2-101.3c-9.3-9.3-24.5-9.3-33.8 0-9.3 9.3-9.3 24.5 0 33.8l101.3 101.3L375 486.4c-9.4 9.4-9.4 24.7 0 34.1 9.4 9.4 24.7 9.4 34.1 0l102.7-102.7z"  horiz-adv-x="1024" />

    
    <glyph glyph-name="sousuo1" unicode="&#58890;" d="M1049.6-5.888000000000034a64 64 0 1 0-90.496-90.496l-181.056 180.992a62.464 62.464 0 0 0-15.168 26.944A434.432 434.432 0 1 0 833.6 192a62.4 62.4 0 0 0 34.752-16.704zM461.632 761.6a320 320 0 1 1 320-320 320 320 0 0 1-320 320z"  horiz-adv-x="1088" />

    
    <glyph glyph-name="xingtaiduICON_sousuo--" unicode="&#58990;" d="M222.6944 673.2032A323.1488 323.1488 0 0 1 133.6832 384c19.2512 87.3728 64.512 172.7488 135.0144 243.3024C339.2512 697.8815999999999 424.6272 743.1168 512 762.3679999999999c-101.632 19.1488-210.688-10.5216-289.3056-89.1648zM989.44 73.88160000000005l-121.7024 121.7024a118.016 118.016 0 0 1-92.8 34.1248c114.4576 165.5552 97.92 394.3936-49.4848 541.824-165.9392 165.9904-435.0464 165.9904-601.0368 0-165.9392-165.9904-165.9392-435.1232 0-601.1136 147.4048-147.4304 376.064-163.84 541.7216-49.3824-2.56-33.28 8.8576-67.5328 34.1248-92.8l121.7024-121.728c46.08-45.9776 121.3696-45.9776 167.3472 0 46.208 45.9776 46.208 121.2928 0.128 167.3728zM676.096 219.904c-138.6752-138.6752-363.392-138.6752-502.016 0-138.6752 138.6752-138.6752 363.4432 0 502.1184 138.624 138.6752 363.3408 138.6752 502.016 0 138.6496-138.5728 138.6496-363.4432 0-502.1184z"  horiz-adv-x="1024" />

    


  </font>
</defs>
</svg>
